<?xml version="1.0" standalone="no"?>
<!DOCTYPE svg PUBLIC "-//W3C//DTD SVG 20010904//EN"
 "http://www.w3.org/TR/2001/REC-SVG-20010904/DTD/svg10.dtd">
<svg version="1.0" xmlns="http://www.w3.org/2000/svg"
 width="5420.000000pt" height="5087.000000pt" viewBox="0 0 5420.000000 5087.000000"
 preserveAspectRatio="xMidYMid meet">

<g transform="translate(0.000000,5087.000000) scale(0.100000,-0.100000)"
fill="#000000" stroke="none">
<path d="M27611 44689 c-4320 -135 -8429 -1700 -11746 -4473 -672 -562 -1365
-1231 -1959 -1890 -591 -655 -1166 -1390 -1668 -2131 -741 -1093 -1389 -2313
-1892 -3557 -756 -1872 -1220 -3914 -1351 -5938 -52 -813 -52 -1719 0 -2520
279 -4262 1935 -8251 4760 -11465 276 -315 485 -536 840 -890 368 -369 591
-579 935 -880 1637 -1432 3481 -2566 5499 -3380 1852 -746 3819 -1199 5826
-1340 439 -31 600 -36 1160 -42 960 -9 1697 32 2620 148 5323 667 10135 3543
13265 7929 433 607 1013 1532 1155 1840 86 190 148 407 175 620 15 125 13 408
-5 534 -50 355 -183 686 -393 970 -61 83 -713 740 -3631 3659 l-3556 3557
3556 3558 c1956 1956 3576 3584 3601 3617 240 320 385 680 429 1065 16 147 6
444 -20 585 -42 223 -120 453 -215 630 -151 280 -483 820 -757 1230 -1110
1663 -2477 3149 -4044 4395 -2769 2201 -6074 3592 -9580 4030 -980 122 -2017
170 -3004 139z m5324 -14539 l4710 -4710 -4715 -4715 -4715 -4715 -4715 4715
-4715 4715 4710 4710 c2590 2590 4714 4710 4720 4710 6 0 2130 -2120 4720
-4710z"/>
</g>
</svg>
